<?xml version="1.0" encoding="iso-8859-1"?>
<!-- Generator: Adobe Illustrator 18.1.1, SVG Export Plug-In . SVG Version: 6.00 Build 0)  -->
<svg version="1.1" id="Capa_1" xmlns="http://www.w3.org/2000/svg" xmlns:xlink="http://www.w3.org/1999/xlink" x="0px" y="0px"
	 viewBox="0 0 440.867 440.867" style="enable-background:new 0 0 440.867 440.867;" xml:space="preserve">
<g>
	<g>
		<path d="M38.492,411.683c0.85,0.85,1.983,1.7,3.117,2.55l15.583,9.633c0.567,0.283,1.417,0.85,1.983,1.133
			c23.517,10.483,49.867,15.867,76.217,15.867c45.333,0,85.85-15.867,114.467-44.483l147.05-147.05
			c45.617-45.617,56.95-123.817,27.483-190.117c-0.283-0.85-0.85-1.7-1.417-2.55l-9.917-15.017c-0.567-0.85-1.417-1.7-1.983-2.55
			l-26.35-26.35C376.509,4.533,365.459,0,354.126,0c-10.483,0-20.683,4.25-28.05,11.617l-76.5,76.5
			c-16.15,16.15-15.583,42.5,0.85,58.933l30.033,30.033L178.176,279.367l-30.6-30.6c-7.367-8.217-17.85-12.467-29.183-12.467
			c-10.767,0-20.967,4.25-28.9,11.9l-76.5,76.5c-7.65,7.65-12.183,18.417-12.75,29.467c-0.567,11.617,3.683,22.95,11.617,30.883
			L38.492,411.683z M37.076,348.783l76.5-76.5c2.833-2.833,7.367-2.55,10.483,0.567l42.5,42.5c6.517,6.517,17.283,6.517,24.083,0
			l126.083-126.083c3.117-3.117,5.1-7.65,5.1-11.9s-1.7-8.783-5.1-11.9l-41.933-42.5c-3.117-3.117-3.683-8.217-0.85-11.05l76.5-76.5
			c1.133-1.133,2.267-1.7,3.967-1.7c2.267,0,4.817,1.133,6.517,2.833l24.933,24.933l8.217,12.467
			c26.917,62.333,8.217,121.833-20.967,150.733L226.059,372.3c-22.383,22.383-54.4,34.567-90.667,34.567
			c-21.25,0-42.5-4.25-61.2-12.467l-13.033-7.933L35.942,361.25c-1.7-1.7-1.7-4.25-1.7-5.383
			C34.526,353.033,35.659,350.483,37.076,348.783z"/>
	</g>
</g>
<g>
</g>
<g>
</g>
<g>
</g>
<g>
</g>
<g>
</g>
<g>
</g>
<g>
</g>
<g>
</g>
<g>
</g>
<g>
</g>
<g>
</g>
<g>
</g>
<g>
</g>
<g>
</g>
<g>
</g>
</svg>
